<svg xmlns="http://www.w3.org/2000/svg" version="1.1" xmlns:xlink="http://www.w3.org/1999/xlink" xmlns:svgjs="http://svgjs.dev/svgjs" width="100%" height="100%" viewBox="0 0 1000 600"><rect width="1000" height="600" x="0" y="0" fill="#262223"/><g><rect width="333.3333333333333" height="333.3333333333333" rx="13.333333333333334" ry="13.333333333333334" y="195.32161868997096" fill="#ddc6b6" transform="matrix(0.7221285052435515,0,0,0.7221285052435517,0,38.597958235601524)" x="173.09934997558594"/><path d="M290.05089286569654 436.98829191924625L290.05089286569654 436.98829191924625Q284.7294564233862 436.98829191924625 281.2463343884194 433.9889368335804Q277.7632123534527 430.95733061796125 275.89264681615566 426.53892581434593L275.89264681615566 426.53892581434593Q273.57056545951116 420.50796451306087 273.57056545951116 412.1549218551313L273.57056545951116 412.1549218551313Q273.57056545951116 404.47915292622304 275.21537308713437 396.4808726977808Q276.82792958480417 388.4503413393852 278.9242530317749 382.6451379477739L278.9242530317749 382.6451379477739Q284.2456894740852 366.8743354005632 293.53401490066335 351.2970396330729Q302.82234032724136 335.75199499553605 313.85222677130287 321.9485113754825Q324.8821132153643 308.1127766254756 334.8799635009171 297.66341052057527L334.8799635009171 297.66341052057527Q319.076909823753 298.5986932892238 304.82191038435195 300.6950167361945Q290.5346598149975 302.7913401831653 282.6331329764155 305.33917944948354L282.6331329764155 305.33917944948354Q274.7316061378334 307.66126080612804 269.732680995057 310.6606158917939Q264.76600698223405 313.6922221074131 264.76600698223405 316.9495862327061L264.76600698223405 316.9495862327061Q264.76600698223405 321.1099819966942 274.50584822815966 325.5283868003095L274.50584822815966 325.5283868003095Q274.9573640475072 325.7541447099832 274.9573640475072 326.463669568958L274.9573640475072 326.463669568958Q274.9573640475072 328.5599930159287 272.89329173048986 328.0762260666278L272.89329173048986 328.0762260666278Q266.37856347990385 325.3026288906357 263.2502038744244 321.9485113754825Q260.121844268945 318.5621427303759 260.121844268945 315.07902069540916L260.121844268945 315.07902069540916Q260.121844268945 310.91862493142105 264.63700246242047 306.95173594715334Q269.1521606558959 303.01709809283903 277.53745444377887 300.46925882652073L277.53745444377887 300.46925882652073Q281.47209229809323 299.3082181481985 290.63141320485767 298.01817295006265Q299.82298524157557 296.72812775192676 312.4654281833068 295.5670870736045Q325.14012225499147 294.40604639528226 338.8146013552314 293.72877266626097L338.8146013552314 293.72877266626097Q340.4594089828546 292.08396503863776 341.84620757085065 290.6971664506417Q343.23300615884665 289.3103678626457 344.6198047468427 288.14932718432345L344.6198047468427 288.14932718432345Q345.78084542516496 286.9882865060012 347.19989514311436 286.9882865060012L347.19989514311436 286.9882865060012Q349.9734923191064 286.9882865060012 349.9734923191064 290.0198927216204L349.9734923191064 290.0198927216204Q349.9734923191064 291.40669130961646 348.5866937311104 293.24500571696L348.5866937311104 293.24500571696Q353.0050985347257 293.0192478072862 357.1654942987137 293.0192478072862Q361.35814119265524 293.0192478072862 365.51853695664335 293.0192478072862L365.51853695664335 293.0192478072862Q378.9995092771629 293.0192478072862 390.4809115405719 293.9545305759347Q401.99456493393427 294.8898133445832 409.6380827328892 297.08289018141414Q417.3138516617974 299.3082181481985 418.70065024979345 303.2428560025128L418.70065024979345 303.2428560025128Q419.41017510876816 304.62965459050884 419.41017510876816 306.5002201278058L419.41017510876816 306.5002201278058Q419.41017510876816 310.4348579821201 416.6043268028227 314.98226730554893Q413.83072962683065 319.4974254990244 410.1218496821901 323.4320633533387L410.1218496821901 323.4320633533387Q408.96080900386784 324.59310403166097 407.7997683255456 324.59310403166097L407.7997683255456 324.59310403166097Q406.4129697375496 324.59310403166097 406.4129697375496 323.206305443665L406.4129697375496 323.206305443665Q406.4129697375496 322.27102267501647 407.3160013762447 321.36799103632137L407.3160013762447 321.36799103632137Q413.6049717171569 314.8532627857354 412.4439310388346 308.8223014844503L412.4439310388346 308.8223014844503Q411.7344061798599 305.1134215398098 406.50972312740976 302.7913401831653Q401.28504007495957 300.46925882652073 393.38351323637755 299.1792136283849Q385.5142375277489 297.889168430249 376.6774279205184 297.4376526109015Q367.84061831328785 296.9861367915539 359.71333356503203 296.9861367915539L359.71333356503203 296.9861367915539Q355.3271798913702 296.9861367915539 351.48929542691604 296.9861367915539Q347.6514109624619 296.9861367915539 344.6198047468427 297.2118947012277L344.6198047468427 297.2118947012277Q335.10572141059083 306.5002201278058 323.72107253704206 319.85218792851174Q312.36867479344664 333.20415572921775 302.5965824175676 348.7492003667546L302.5965824175676 348.7492003667546Q312.82019061279414 347.58815968843237 322.91479428820713 346.7818814395975Q333.00939796362013 345.97560319076257 343.94253101782135 345.97560319076257L343.94253101782135 345.97560319076257Q349.74773440943267 345.97560319076257 355.7786957107177 346.2013611004363Q361.8096570120028 346.4271190101101 368.3243852625888 347.1366438690848L368.3243852625888 347.1366438690848Q372.03326520722936 347.3624017787586 372.03326520722936 348.7492003667546L372.03326520722936 348.7492003667546Q372.03326520722936 349.6844831354031 370.42070870955956 350.39400799437783Q368.77590108193635 351.0712817233991 367.6148604036141 351.0712817233991L367.6148604036141 351.0712817233991Q364.61550531794825 351.0712817233991 361.35814119265524 350.97452833353896Q358.10077706736223 350.8455238137254 354.6176550323955 350.8455238137254L354.6176550323955 350.8455238137254Q345.1035716961436 350.8455238137254 334.8799635009171 351.2970396330729Q324.65635530569057 351.7808065823739 315.36802987911244 352.58708483120876Q306.07970445253443 353.3933630800437 299.11346038260086 354.55440375836594L299.11346038260086 354.55440375836594Q288.8898521873743 371.2927402041785 283.56841574506393 388.4503413393852L283.56841574506393 388.4503413393852Q281.9236081174407 394.25554473099646 280.8915719589321 400.31875716223493Q279.8595358004234 406.34971846352 279.8595358004234 412.1549218551313L279.8595358004234 412.1549218551313Q279.8595358004234 418.89540801539107 281.2463343884194 425.1521272263499L281.2463343884194 425.1521272263499Q282.4073750667417 429.5705320299652 285.98725049156866 432.247375816097Q289.599377046349 434.8919684722755 292.856741171642 433.9889368335804L292.856741171642 433.9889368335804L293.7920239402905 433.73092779395324Q295.63033834763405 433.73092779395324 295.63033834763405 435.14997751190265L295.63033834763405 435.14997751190265Q295.63033834763405 436.5367760998987 293.08249908131575 436.7625340095725L293.08249908131575 436.7625340095725Q292.1472163126673 436.98829191924625 291.469942583646 436.98829191924625Q290.76041772467124 436.98829191924625 290.05089286569654 436.98829191924625Z " fill="#262223" transform="matrix(0.7221285052435515,0,0,0.7221285052435517,0,38.597958235601524)"/><path d="M598.5379388015942 389.25436721328344L598.5379388015942 389.25436721328344Q595.3702975467224 389.25436721328344 593.7133775057126 388.03604365371734Q592.0320909935115 386.8177200941513 591.1548980306238 385.0633341683762L591.1548980306238 385.0633341683762Q590.4726368372669 383.308948242601 590.107139769397 381.45709643206055Q589.7660091727186 379.60524462152017 589.7660091727186 377.68029339740576L589.7660091727186 377.68029339740576Q589.7660091727186 372.7826326879502 591.3498298001545 367.4220090258595Q592.909283956399 362.06138536376875 595.1022663636179 357.16372465431317Q597.2952487708369 352.24169747366625 599.049634696612 348.732925622116L599.049634696612 348.732925622116Q603.0944689143714 341.20368602399765 608.3576266916969 333.8206452530273Q613.6207844690222 326.4619709532482 620.0291663923397 321.10134729115754Q626.4375483156573 315.76509010025813 633.2601602492273 314.18126947282224L633.2601602492273 314.18126947282224Q634.1373532121148 314.010704174483 634.8439808766632 313.91323828971775Q635.5506085412114 313.81577240495244 636.2572362057597 313.81577240495244L636.2572362057597 313.81577240495244Q639.229945691101 313.81577240495244 640.984331616876 314.96099655094457Q642.7387175426512 316.10622069693665 643.2747799088603 317.86060662271177L643.2747799088603 317.86060662271177Q643.2747799088603 318.03117192105105 643.3478793224342 318.2017372193903Q643.4453452071996 318.39666898892085 643.4453452071996 318.56723428726013L643.4453452071996 318.56723428726013Q643.4453452071996 319.7855578468262 642.7387175426512 319.7855578468262L642.7387175426512 319.7855578468262Q642.2270216476335 319.7855578468262 641.8615245797637 318.39666898892085L641.8615245797637 318.39666898892085Q641.6909592814244 317.5194760260333 640.2777039523278 317.0808795445895Q638.8888150944224 316.6422830631457 637.1344291686473 316.6422830631457L637.1344291686473 316.6422830631457Q631.3352090251128 316.6422830631457 625.4628894680044 321.5399437726013Q619.590569910896 326.4619709532482 614.1568468352312 333.9181111377926Q608.6987572883752 341.37425132233693 604.3127924739374 349.2689879883251L604.3127924739374 349.2689879883251Q603.8010965789197 350.3167462495519 602.1198100667185 353.6549528027629Q600.4628900257087 356.99315935597394 598.6110382151683 361.1841924008812Q596.7835528758192 365.39959191697983 595.5408628450617 369.07892906686936L595.5408628450617 369.07892906686936Q594.8586016517047 370.66274969430526 595.5408628450617 370.66274969430526L595.5408628450617 370.66274969430526Q595.9063599129315 370.66274969430526 596.4180558079493 369.44442613473916L596.4180558079493 369.44442613473916Q599.585697062821 362.06138536376875 603.8741959924937 357.3342899526524Q608.1870613933575 352.6071945415361 612.7435915061346 349.4395532866643L612.7435915061346 349.4395532866643Q617.3001216189117 346.63740909966236 621.8566517316888 346.63740909966236L621.8566517316888 346.63740909966236Q625.1948582848999 346.63740909966236 627.4853065768841 348.46489443901146Q629.7513883976769 350.3167462495519 629.7513883976769 354.53214576565045L629.7513883976769 354.53214576565045Q629.7513883976769 357.6754205493309 628.5330648381109 361.3791241704118L628.5330648381109 361.3791241704118Q627.3147412785448 364.8878960219621 624.4882306203515 369.44442613473916Q621.6860864333496 374.0009562475162 617.7387181003555 378.2894551771888Q613.7913497673615 382.6023205780527 609.4053849529237 385.5750300633939Q605.0194201384858 388.5721060199264 600.8040206223872 389.08380191494416L600.8040206223872 389.08380191494416Q600.1217594290301 389.25436721328344 599.585697062821 389.25436721328344Q599.049634696612 389.25436721328344 598.5379388015942 389.25436721328344ZM599.585697062821 387.32941598916904L599.585697062821 387.32941598916904Q603.6305312805805 387.32941598916904 608.8936890579058 382.9434511747312L608.8936890579058 382.9434511747312Q613.9619150657006 378.55748636029335 618.1042151682253 372.51460150484564Q622.2221487995587 366.44735017820665 623.0993417624462 361.3791241704118L623.0993417624462 361.3791241704118Q623.611037657464 358.74754528174907 623.611037657464 356.7982275864434L623.611037657464 356.7982275864434Q623.611037657464 352.77775983987533 622.0515835012194 351.53506980911794Q620.4677628737835 350.3167462495519 618.3478798801385 350.3167462495519L618.3478798801385 350.3167462495519Q614.4979774319097 350.3167462495519 610.648074983681 353.48438750442364Q606.773806064261 356.6276622881041 603.5330653958151 361.2816582856465Q600.2923247273694 365.9356542831889 598.1724417337244 370.66274969430526Q596.0769252112708 375.4142115766129 595.5408628450617 378.55748636029335L595.5408628450617 378.55748636029335Q595.3702975467224 379.43467932318094 595.2971981331485 380.2387728724945Q595.1997322483833 381.0184999506168 595.1997322483833 381.72512761516515L595.1997322483833 381.72512761516515Q595.1997322483833 387.32941598916904 599.585697062821 387.32941598916904ZM644.1519728717478 387.8654783553781L644.1519728717478 387.8654783553781Q639.4005109894401 387.8654783553781 635.89173913789 385.50193064981994Q632.3829672863396 383.1140164730705 632.3829672863396 376.97366573285746L632.3829672863396 376.97366573285746Q632.3829672863396 373.1237632846287 634.3322849816453 368.4697672870863Q636.2572362057597 363.81577128954393 639.3274115758662 359.3567070615321Q642.3975869459728 354.87327636232897 646.0769240958623 351.9005668769878L646.0769240958623 351.9005668769878Q646.9541170587498 351.19393921243943 648.3673723878464 351.19393921243943L648.3673723878464 351.19393921243943Q650.4628889103001 349.0984226899858 653.1919336837282 348.02629795756764Q655.8966119859648 346.9785396963409 658.3576255762882 346.9785396963409L658.3576255762882 346.9785396963409Q662.743590390726 346.9785396963409 666.5203934253809 349.7806838833428Q670.2971964600357 352.6071945415361 670.2971964600357 358.74754528174907L670.2971964600357 358.74754528174907Q670.2971964600357 362.2563171332994 668.34787876473 367.15397784275495L668.34787876473 367.15397784275495Q666.5934928389548 371.710507955532 662.9141556890654 376.5350692514137Q659.2348185391759 381.3596305472953 654.4102572432942 384.62473768693235Q649.5856959474125 387.8654783553781 644.1519728717478 387.8654783553781ZM643.9814075734087 385.74559536173314L643.9814075734087 385.74559536173314Q647.8313100216374 385.74559536173314 651.9492436529707 382.77288587639197Q656.0671772843041 379.80017639105074 659.5759491358543 375.14618039350836Q663.0847209874046 370.492184395966 664.6685416148405 365.7650889848496L664.6685416148405 365.7650889848496Q666.4229275406155 361.01362710254193 666.4229275406155 357.3342899526524L666.4229275406155 357.3342899526524Q666.4229275406155 352.77775983987533 663.9619139502921 350.75534273099566Q661.52526683116 348.732925622116 658.5281908746275 348.732925622116L658.5281908746275 348.732925622116Q653.8010954635112 348.732925622116 650.2923236119609 351.9005668769878L650.2923236119609 351.9005668769878Q652.046709537736 352.9483251382146 650.6334542086394 353.99608339944143L650.6334542086394 353.99608339944143Q648.1724406183159 356.11596639308635 645.1022652482094 359.7953035429759Q642.0320898781029 363.4746406928654 640.2777039523278 366.6422819477372L640.2777039523278 366.6422819477372Q639.0593803927617 368.73779847019085 638.0847215451088 372.0760050234019Q637.1344291686473 375.4142115766129 637.1344291686473 378.3869210619541L637.1344291686473 378.3869210619541Q637.1344291686473 381.3596305472953 638.6207839113179 383.55261295451425Q640.1071386539885 385.74559536173314 643.9814075734087 385.74559536173314ZM678.1919331260239 388.37717425039585L678.1919331260239 388.37717425039585Q675.0242918711521 388.37717425039585 673.6110365420554 386.2816577279422Q672.2221476841501 384.1861412054886 672.2221476841501 381.0184999506168L672.2221476841501 381.0184999506168Q672.2221476841501 378.55748636029335 672.7338435791678 376.2914045395005L672.7338435791678 376.2914045395005Q673.0993406470377 375.21927980708233 674.5856953897082 371.02824676217506Q676.0720501323789 366.81284724607644 678.6305296074677 361.7202547670903Q681.164642611365 356.6276622881041 684.1373520967063 352.8508592534493Q687.1344280532388 349.0984226899858 690.2777028369193 349.0984226899858L690.2777028369193 349.0984226899858Q691.6909581660159 349.0984226899858 691.6909581660159 349.7806838833428L691.6909581660159 349.7806838833428Q691.6909581660159 350.4873115478911 690.9843305014675 351.19393921243943L690.9843305014675 351.19393921243943Q687.4755586499173 355.40933872853805 684.4053832798108 361.11109298730725Q681.3352079097043 366.81284724607644 679.3127908008246 371.9054397250626Q677.3147401631363 376.97366573285746 676.9492430952664 379.60524462152017L676.9492430952664 379.60524462152017Q676.4375472002487 385.2338994667154 680.2874496484775 385.2338994667154L680.2874496484775 385.2338994667154Q683.6256562016886 385.2338994667154 687.4024592363434 382.1637240966089Q691.1548957998068 379.09354872650243 694.7611335361224 374.26898743062077Q698.3673712724379 369.44442613473916 700.9989501611007 364.1812683574137L700.9989501611007 364.1812683574137Q703.8010943481025 358.74754528174907 707.1393009013136 353.9229839858674Q710.4531409833334 349.0984226899858 713.9619128348836 349.0984226899858L713.9619128348836 349.0984226899858Q715.3751681639802 349.0984226899858 715.3751681639802 349.7806838833428L715.3751681639802 349.7806838833428Q715.3751681639802 350.4873115478911 714.668540499432 351.19393921243943L714.668540499432 351.19393921243943Q711.1597686478816 355.40933872853805 708.0895932777752 361.11109298730725Q705.0194179076686 366.81284724607644 702.997000798789 371.9054397250626Q700.9989501611007 376.97366573285746 700.6334530932309 379.60524462152017L700.6334530932309 379.60524462152017Q700.121757198213 385.2338994667154 703.9716596464418 385.2338994667154L703.9716596464418 385.2338994667154Q707.8215620946706 385.2338994667154 711.86639631243 381.72512761516515Q715.9112305301893 378.21635576361484 719.4200023817397 373.6598256508378Q722.9287742332898 369.07892906686936 725.0242907557436 365.9356542831889L725.0242907557436 365.9356542831889Q725.7309184202918 365.22902661864055 725.9014837186311 365.22902661864055L725.9014837186311 365.22902661864055Q726.4375460848402 365.22902661864055 726.4375460848402 366.10621958152814L726.4375460848402 366.10621958152814Q726.4375460848402 366.81284724607644 725.9014837186311 367.69004020896404L725.9014837186311 367.69004020896404Q723.0993395316292 372.2465703217411 719.1519711986351 377.07113161762277Q715.204602865641 381.8956929135044 710.8186380512032 385.13643358195014Q706.4326732367653 388.37717425039585 701.8761431239882 388.37717425039585L701.8761431239882 388.37717425039585Q698.7085018691164 388.37717425039585 697.2952465400198 386.2816577279422Q695.9063576821145 384.1861412054886 695.9063576821145 381.0184999506168L695.9063576821145 381.0184999506168Q695.9063576821145 378.55748636029335 696.4180535771322 376.2914045395005L696.4180535771322 376.2914045395005L696.783550645002 374.7075839120646Q693.4453440917911 379.09354872650243 689.8391063554755 382.6023205780527Q686.2572350903512 386.111092429603 682.7484632388009 387.32941598916904L682.7484632388009 387.32941598916904Q680.1168843501382 388.37717425039585 678.1919331260239 388.37717425039585ZM723.0993395316292 387.8654783553781L723.0993395316292 387.8654783553781Q722.56327716542 387.8654783553781 722.0515812704023 387.1588506908298L722.0515812704023 387.1588506908298Q720.6383259413057 385.5750300633939 720.6383259413057 382.0662582118436L720.6383259413057 382.0662582118436Q720.6383259413057 378.3869210619541 721.954115385637 373.7329250644117Q723.2699048299684 369.07892906686936 725.0242907557436 365.22902661864055L725.0242907557436 365.22902661864055Q726.7786766815186 361.549689468751 728.2650314241893 358.74754528174907Q729.7513861668598 355.9210346235558 730.2874485330689 355.23877343019876L730.2874485330689 355.23877343019876Q732.2123997571833 352.77775983987533 734.3322827508283 351.19393921243943Q736.427799273282 349.61011858500353 738.5233157957356 349.61011858500353L738.5233157957356 349.61011858500353Q739.5954405281537 349.61011858500353 740.2046023079367 350.1461809512126Q740.8137640877197 350.65787684623035 740.2777017215107 351.0233739141002L740.2777017215107 351.0233739141002Q738.8888128636054 351.7300015786485 736.5983645716211 354.800176948755Q734.3322827508283 357.8703523188615 731.8712691605048 361.8908200654295L731.8712691605048 361.8908200654295Q730.2874485330689 364.69296425243147 727.8264349427454 369.44442613473916Q725.365421352422 374.1715215458555 725.0242907557436 377.50972809906654L725.0242907557436 377.50972809906654Q725.0242907557436 378.92298342816315 725.7309184202918 378.7280516586326L725.7309184202918 378.7280516586326L730.1168832347297 371.5399426571928Q733.7962203846192 365.39959191697983 739.7660058264929 359.42980647510603Q745.7357912683666 353.48438750442364 752.5584032019366 349.61011858500353L752.5584032019366 349.61011858500353Q753.265030866485 349.2689879883251 754.0691244157986 349.0984226899858Q754.8488514939208 348.9034909204552 755.5554791584692 348.9034909204552L755.5554791584692 348.9034909204552Q757.1392997859051 348.9034909204552 757.1392997859051 349.9756156528734L757.1392997859051 349.9756156528734Q757.1392997859051 350.3167462495519 756.2621068230175 351.7300015786485L756.2621068230175 351.7300015786485Q752.5584032019366 356.6276622881041 750.462886679483 361.98828595019484Q748.3673701570293 367.3245431410942 747.8313077908203 373.6598256508378L747.8313077908203 373.6598256508378Q747.6607424924811 377.50972809906654 748.6110348689426 380.7504687675123Q749.5856937165954 383.991209435958 752.9239002698065 383.991209435958L752.9239002698065 383.991209435958Q756.7738027180352 383.991209435958 760.2825745695856 380.84793465227756Q763.7913464211358 377.68029339740576 766.8615217912424 373.39179446773323Q769.9316971613488 369.07892906686936 772.222145453333 365.7650889848496L772.222145453333 365.7650889848496Q772.5632760500115 365.22902661864055 772.7338413483508 365.22902661864055L772.7338413483508 365.22902661864055Q773.2699037145597 365.22902661864055 773.2699037145597 366.27678487986736L773.2699037145597 366.27678487986736Q773.2699037145597 367.15397784275495 772.5632760500115 368.39666787351234L772.5632760500115 368.39666787351234Q769.9316971613488 372.2465703217411 766.7884223776683 376.63253513617894Q763.6207811227965 381.0184999506168 759.8439780881417 383.991209435958Q756.067175053487 386.9882853924905 751.3400796423706 386.9882853924905L751.3400796423706 386.9882853924905Q746.9541148279328 386.9882853924905 745.0291636038183 383.6500788392795Q743.104212379704 380.3118722860685 743.104212379704 375.5847768749521L743.104212379704 375.5847768749521Q743.104212379704 370.492184395966 744.7611324207138 364.69296425243147Q746.4180524617237 358.9181105800883 748.7085007537079 355.04384166066825L748.7085007537079 355.04384166066825Q744.1519706409308 358.3820482138792 739.2299434602838 363.3771748081001Q734.3322827508283 368.39666787351234 730.823510899278 374.0009562475162L730.823510899278 374.0009562475162Q729.5808208685206 376.2914045395005 727.485304346067 379.80017639105074Q725.365421352422 383.308948242601 724.6831601590651 385.4044647650546L724.6831601590651 385.4044647650546Q724.4882283895345 386.111092429603 724.3176630911952 386.54968891104676Q724.147097792856 386.9882853924905 723.9765324945166 387.32941598916904L723.9765324945166 387.32941598916904Q723.8059671961774 387.8654783553781 723.0993395316292 387.8654783553781ZM773.0993384162206 388.37717425039585L773.0993384162206 388.37717425039585Q769.9316971613488 388.37717425039585 768.5428083034435 386.2816577279422Q767.1295529743469 384.1861412054886 767.1295529743469 381.0184999506168L767.1295529743469 381.0184999506168Q767.1295529743469 378.55748636029335 767.665615340556 376.2914045395005L767.665615340556 376.2914045395005Q768.1773112355737 373.830390949177 770.9794554225756 368.1286366904078Q773.8059660807689 362.4268824316386 777.1198061627887 356.11596639308635L777.1198061627887 356.11596639308635Q775.3654202370135 356.7982275864434 773.3673695993251 357.60232113575694Q771.3449524904455 358.3820482138792 770.4677595275579 359.2592411767668L770.4677595275579 359.2592411767668Q769.7611318630096 359.62473824463666 769.5905665646703 359.62473824463666L769.5905665646703 359.62473824463666Q769.0545041984612 359.62473824463666 769.0545041984612 358.9181105800883L769.0545041984612 358.9181105800883Q769.0545041984612 357.3342899526524 770.9794554225756 355.9210346235558L770.9794554225756 355.9210346235558Q772.9287731178813 354.53214576565045 774.7562584572304 353.99608339944143Q776.6081102677708 353.48438750442364 779.0691238580943 352.77775983987533L779.0691238580943 352.77775983987533Q780.9940750822087 349.2689879883251 783.1870574894276 345.49218495367023Q785.3800398966465 341.71538191901544 787.1344258224217 338.9132377320135L787.1344258224217 338.9132377320135Q788.3527493819878 337.1588518062383 790.6431976739719 334.42980703281034Q792.9092794947649 331.72512873057366 795.7357901529582 329.97074280479853L795.7357901529582 329.97074280479853Q797.2952443092028 328.9229845435717 799.9268231978655 328.9229845435717L799.9268231978655 328.9229845435717Q801.8761408931712 328.9229845435717 802.0467061915103 329.6052457369287L802.0467061915103 329.6052457369287Q799.4151273028476 330.31187340147704 796.6860825294197 333.114017588479Q793.981404227183 335.9405282466723 791.5203906368596 339.61986539656175Q789.059377046536 343.29920254645134 787.304991120761 346.53994321489705Q785.5506051949858 349.7806838833428 784.6734122320983 351.53506980911794L784.6734122320983 351.53506980911794Q788.3527493819878 351.0233739141002 790.8137629723112 351.0233739141002L790.8137629723112 351.0233739141002Q792.2270183014078 351.0233739141002 793.2747765626347 351.0964733276742Q794.3225348238615 351.19393921243943 795.0291624884098 351.3645045107787L795.0291624884098 351.3645045107787Q796.4180513463151 351.53506980911794 796.4180513463151 352.24169747366625L796.4180513463151 352.24169747366625Q796.4180513463151 352.9483251382146 794.66366542054 352.9483251382146L794.66366542054 352.9483251382146Q793.2747765626347 352.9483251382146 791.4229247520942 352.9483251382146Q789.5954394127451 352.9483251382146 787.4755564191003 353.28945573489307L787.4755564191003 353.28945573489307Q785.8917357916642 353.48438750442364 784.2348157506544 354.3615804673112Q782.5778957096446 355.23877343019876 782.0418333434355 356.2865316914256L782.0418333434355 356.2865316914256Q778.1919308952068 363.3040753945262 775.1948549386742 369.78555673141767Q772.222145453333 376.2914045395005 771.8566483854632 379.60524462152017L771.8566483854632 379.60524462152017Q771.3449524904455 385.2338994667154 775.1948549386742 385.2338994667154L775.1948549386742 385.2338994667154Q779.0691238580943 385.2338994667154 783.0164921910883 381.7982270287391Q786.9638605240824 378.3869210619541 790.4726323756328 373.830390949177Q793.981404227183 369.2738608363999 796.0769207496365 366.10621958152814L796.0769207496365 366.10621958152814Q796.783548414185 365.39959191697983 796.9541137125242 365.39959191697983L796.9541137125242 365.39959191697983Q797.4901760787333 365.39959191697983 797.4901760787333 366.27678487986736L797.4901760787333 366.27678487986736Q797.4901760787333 366.9834125444157 796.9541137125242 367.86060550730326L796.9541137125242 367.86060550730326Q793.981404227183 372.41713562008033 790.1071353077629 377.168597502388Q786.2572328595342 381.8956929135044 781.9443674586703 385.13643358195014Q777.6558685289976 388.37717425039585 773.0993384162206 388.37717425039585ZM815.2046006348239 336.62278944002924L815.2046006348239 336.62278944002924Q812.7435870445005 336.62278944002924 812.2075246782914 333.65007995468807L812.2075246782914 333.65007995468807Q812.0369593799521 332.2368246255914 813.9619106040665 330.84793576768607Q815.9112282993723 329.43468043858945 817.1295518589383 328.9229845435717L817.1295518589383 328.9229845435717Q818.0067448218259 328.55748747570186 818.542807188035 328.38692217736264Q819.0545030830527 328.2163568790234 819.4200001509225 328.2163568790234L819.4200001509225 328.2163568790234Q820.6383237104886 328.2163568790234 820.6383237104886 329.43468043858945L820.6383237104886 329.43468043858945Q820.6383237104886 330.84793576768607 819.6636648628357 332.7728869918005Q818.7133724863742 334.6978382159149 818.7133724863742 334.6978382159149L818.7133724863742 334.6978382159149Q818.542807188035 335.4044658804632 817.4706824556168 336.01362766024624Q816.42292419439 336.62278944002924 815.2046006348239 336.62278944002924ZM797.6607413770726 388.37717425039585L797.6607413770726 388.37717425039585Q794.4931001222008 388.37717425039585 793.1042112642954 386.2816577279422Q791.6909559351988 384.1861412054886 791.6909559351988 381.0184999506168L791.6909559351988 381.0184999506168Q791.6909559351988 378.55748636029335 792.2270183014078 376.2914045395005L792.2270183014078 376.2914045395005Q792.5681488980864 375.21927980708233 794.0545036407569 371.02824676217506Q795.5408583834276 366.81284724607644 798.0993378585164 361.7202547670903Q800.6334508624137 356.6276622881041 803.6305268189462 352.8508592534493Q806.6032363042874 349.0984226899858 809.7708775591592 349.0984226899858L809.7708775591592 349.0984226899858Q811.1597664170646 349.0984226899858 811.1597664170646 349.7806838833428L811.1597664170646 349.7806838833428Q811.1597664170646 350.4873115478911 810.4531387525162 351.19393921243943L810.4531387525162 351.19393921243943Q806.944366900966 355.40933872853805 803.8741915308594 361.11109298730725Q800.804016160753 366.81284724607644 798.8059655230646 371.9054397250626Q796.783548414185 376.97366573285746 796.4180513463151 379.60524462152017L796.4180513463151 379.60524462152017Q795.9063554512974 385.2338994667154 799.7562578995262 385.2338994667154L799.7562578995262 385.2338994667154Q800.2923202657352 385.2338994667154 800.804016160753 385.13643358195014Q801.3400785269621 385.0633341683762 802.0467061915103 384.8684023988456L802.0467061915103 384.8684023988456Q805.7260433413999 383.6500788392795 809.2348151929501 380.3118722860685Q812.7435870445005 376.97366573285746 815.7162965298417 372.9531979862894Q818.7133724863742 368.9083637685301 820.6383237104886 365.9356542831889L820.6383237104886 365.9356542831889Q821.3449513750369 365.22902661864055 821.5155166733762 365.22902661864055L821.5155166733762 365.22902661864055Q822.0515790395852 365.22902661864055 822.0515790395852 366.10621958152814L822.0515790395852 366.10621958152814Q822.0515790395852 366.9834125444157 821.5155166733762 367.86060550730326L821.5155166733762 367.86060550730326Q817.6656142251474 373.830390949177 812.475555861396 379.60524462152017Q807.3098639688359 385.4044647650546 802.2172714898496 387.32941598916904L802.2172714898496 387.32941598916904Q799.5856926011869 388.37717425039585 797.6607413770726 388.37717425039585ZM825.7309161894748 436.988284277082L825.7309161894748 436.988284277082Q821.8566472700546 436.988284277082 818.8839377847135 433.38204654076645Q815.9112282993723 429.80017527564223 815.2046006348239 422.2465692063326L815.2046006348239 422.2465692063326Q815.0340353364846 420.8333138772359 815.0340353364846 419.34695913456534Q815.0340353364846 417.86060439189475 815.0340353364846 416.4473490627981L815.0340353364846 416.4473490627981Q815.0340353364846 409.9658677259066 816.0817935977115 402.85085813804073Q817.1295518589383 395.76021502136626 819.2250683813919 388.7426713182657L819.2250683813919 388.7426713182657Q821.6860819717155 380.48243758440776 825.4628850063702 371.63740854195805Q829.239688041025 362.7680130283171 832.3829628247055 356.45709698976486L832.3829628247055 356.45709698976486Q829.5808186377035 356.11596639308635 826.0720467861532 357.5048552509917Q822.563274934603 358.9181105800883 820.6383237104886 360.8430618042027L820.6383237104886 360.8430618042027Q820.1022613442796 361.3791241704118 819.761130747601 361.3791241704118L819.761130747601 361.3791241704118Q819.2250683813919 361.3791241704118 819.2250683813919 360.5019312075242L819.2250683813919 360.5019312075242Q819.2250683813919 358.5526135122185 820.8088890088278 357.3342899526524L820.8088890088278 357.3342899526524Q823.4404678974905 354.70271106398974 826.437543854023 353.5574869179976Q829.4102533393642 352.41226277200553 835.0145417133682 351.3645045107787L835.0145417133682 351.3645045107787Q836.2572317441256 349.0984226899858 838.2796488530053 345.58965083843555Q840.2776994906936 342.08087898688524 841.520389521451 339.79043069490103L841.520389521451 339.79043069490103Q847.2952431937941 330.67737046934684 854.8488492631038 323.2943296983765Q862.4024553324135 315.9356553985974 870.63832259508 314.18126947282224L870.63832259508 314.18126947282224Q871.5155155579677 314.010704174483 872.2221432225159 313.91323828971775Q872.9287708870643 313.81577240495244 873.6110320804213 313.81577240495244L873.6110320804213 313.81577240495244Q876.6081080369538 313.81577240495244 878.362493962729 314.96099655094457Q880.1168798885041 316.10622069693665 880.4580104851826 317.86060662271177L880.4580104851826 317.86060662271177Q880.6285757835218 318.2017372193903 880.6285757835218 318.73779958559936L880.6285757835218 318.73779958559936Q880.6285757835218 319.61499254848695 880.1168798885041 319.61499254848695L880.1168798885041 319.61499254848695Q879.4102522239558 319.61499254848695 879.2396869256164 318.39666898892085L879.2396869256164 318.39666898892085Q879.0691216272772 317.5194760260333 877.6558662981805 317.0808795445895Q876.242610969084 316.6422830631457 874.4882250433088 316.6422830631457L874.4882250433088 316.6422830631457Q870.1022602288709 316.6422830631457 865.2776989329893 319.8830237315915Q860.4531376371077 323.1237644000372 855.8966075243306 328.48438806212795Q851.3400774115536 333.8206452530273 847.2952431937941 340.13156129157954L847.2952431937941 340.13156129157954Q845.7357890375496 342.42200958356375 844.1519684101137 345.1510543569917Q842.5681477826778 347.8557326592284 841.1548924535812 350.1461809512126L841.1548924535812 350.1461809512126Q845.7357890375496 349.61011858500353 850.2923191503268 349.2689879883251Q854.8488492631038 348.9034909204552 858.6987517113325 348.9034909204552L858.6987517113325 348.9034909204552Q860.1120070404291 348.9034909204552 861.3303305999954 348.9034909204552Q862.5730206307527 348.9034909204552 863.6207788919795 349.0984226899858L863.6207788919795 349.0984226899858Q865.5457301160939 349.4395532866643 865.5457301160939 350.3167462495519L865.5457301160939 350.3167462495519Q865.5457301160939 351.3645045107787 863.9619094886581 351.3645045107787L863.9619094886581 351.3645045107787Q856.9443657855575 351.3645045107787 851.1695121132143 351.9005668769878Q845.3702919696798 352.41226277200553 839.2299412294668 353.82551810110215L839.2299412294668 353.82551810110215Q839.0593759311275 354.53214576565045 838.7182453344491 355.1413075454335Q838.3527482665792 355.75046932521656 838.0116176699007 356.2865316914256L838.0116176699007 356.2865316914256Q842.7387130810171 357.3342899526524 845.8088884511236 361.7202547670903Q848.87906382123 366.10621958152814 850.3654185639006 372.5877009184196Q851.8761397777627 379.09354872650243 851.8761397777627 386.2816577279422L851.8761397777627 386.2816577279422Q851.8761397777627 390.49705724404083 851.3400774115536 395.05358735681796L851.3400774115536 395.05358735681796Q850.1217538519874 405.40933761312954 847.0515784818809 414.01070194366594Q843.9814031117745 422.5876998030111 840.1071341923544 427.68029228199725L840.1071341923544 427.68029228199725Q832.9190251909146 436.988284277082 825.7309161894748 436.988284277082ZM826.437543854023 432.7728847609834L826.437543854023 432.7728847609834Q829.4102533393642 432.7728847609834 833.0164910756798 429.7027093908769Q836.5983623408041 426.63253402077044 839.9365688940151 420.49218328055747L839.9365688940151 420.49218328055747Q842.0320854164687 416.4473490627981 844.6636643051314 409.86840184114135Q847.2952431937941 403.28945461948456 848.5379332245515 394.8830220584787L848.5379332245515 394.8830220584787Q848.87906382123 392.25144316981596 849.1470950043346 389.61986428115324Q849.4151261874391 386.9882853924905 849.4151261874391 384.5272718021671L849.4151261874391 384.5272718021671Q849.4151261874391 374.8781492104038 846.3449508173327 367.4220090258595Q843.2747754472261 359.9658688413151 837.1344247070132 358.21148291554L837.1344247070132 358.21148291554Q832.577894594236 366.27678487986736 828.703625674816 376.2914045395005Q824.8537232265871 386.2816577279422 822.2952437514984 396.6374079842538Q819.761130747601 406.9931582405654 819.0545030830527 415.93565316778034L819.0545030830527 415.93565316778034Q818.542807188035 424.34208572878623 820.7357895952539 428.5574852448848Q822.9287720024728 432.7728847609834 826.437543854023 432.7728847609834ZM866.4229230789814 388.37717425039585L866.4229230789814 388.37717425039585Q863.279648295301 388.37717425039585 861.8663929662043 386.2816577279422Q860.4531376371077 384.1861412054886 860.4531376371077 381.0184999506168L860.4531376371077 381.0184999506168Q860.4531376371077 378.55748636029335 860.9892000033168 376.2914045395005L860.9892000033168 376.2914045395005Q861.3303305999954 375.21927980708233 862.8410518138572 371.02824676217506Q864.3274065565278 366.81284724607644 866.8615195604252 361.7202547670903Q869.419999035514 356.6276622881041 872.3927085208552 352.8508592534493Q875.3654180061964 349.0984226899858 878.5330592610682 349.0984226899858L878.5330592610682 349.0984226899858Q879.9463145901648 349.0984226899858 879.9463145901648 349.7806838833428L879.9463145901648 349.7806838833428Q879.9463145901648 350.4873115478911 879.2396869256164 351.19393921243943L879.2396869256164 351.19393921243943Q875.7309150740663 355.40933872853805 872.6607397039597 361.11109298730725Q869.5905643338532 366.81284724607644 867.5681472249736 371.9054397250626Q865.5457301160939 376.97366573285746 865.2045995194154 379.60524462152017L865.2045995194154 379.60524462152017Q864.6685371532063 385.2338994667154 868.5428060726264 385.2338994667154L868.5428060726264 385.2338994667154Q871.8566461546462 385.2338994667154 875.6334491893009 382.1637240966089Q879.4102522239558 379.09354872650243 883.0164899602713 374.26898743062077Q886.5983612253955 369.44442613473916 889.2299401140582 364.1812683574137L889.2299401140582 364.1812683574137Q892.0320843010603 358.74754528174907 895.3702908542713 353.9229839858674Q898.7084974074822 349.0984226899858 902.2172692590325 349.0984226899858L902.2172692590325 349.0984226899858Q903.6305245881292 349.0984226899858 903.6305245881292 349.7806838833428L903.6305245881292 349.7806838833428Q903.6305245881292 350.4873115478911 902.9238969235809 351.19393921243943L902.9238969235809 351.19393921243943Q899.4151250720306 355.40933872853805 896.3449497019241 361.11109298730725Q893.2747743318176 366.81284724607644 891.2523572229379 371.9054397250626Q889.2299401140582 376.97366573285746 888.8888095173797 379.60524462152017L888.8888095173797 379.60524462152017Q888.3527471511708 385.2338994667154 892.2270160705908 385.2338994667154L892.2270160705908 385.2338994667154Q896.0769185188195 385.2338994667154 900.121752736579 381.72512761516515Q904.1422204831468 378.21635576361484 907.6509923346972 373.6598256508378Q911.1597641862476 369.07892906686936 913.2796471798923 365.9356542831889L913.2796471798923 365.9356542831889Q913.9619083732495 365.22902661864055 914.15684014278 365.22902661864055L914.15684014278 365.22902661864055Q914.6685360377978 365.22902661864055 914.6685360377978 366.10621958152814L914.6685360377978 366.10621958152814Q914.6685360377978 366.81284724607644 914.15684014278 367.69004020896404L914.15684014278 367.69004020896404Q911.3303294845867 372.2465703217411 907.3829611515927 377.07113161762277Q903.4355928185986 381.8956929135044 899.0496280041608 385.13643358195014Q894.6636631897229 388.37717425039585 890.1071330769458 388.37717425039585L890.1071330769458 388.37717425039585Q886.9638582932654 388.37717425039585 885.5506029641688 386.2816577279422Q884.137347635072 384.1861412054886 884.137347635072 381.0184999506168L884.137347635072 381.0184999506168Q884.137347635072 378.55748636029335 884.6734100012812 376.2914045395005L884.6734100012812 376.2914045395005L885.0145405979596 374.7075839120646Q881.70070051594 379.09354872650243 878.0944627796245 382.6023205780527Q874.4882250433088 386.111092429603 870.9794531917586 387.32941598916904L870.9794531917586 387.32941598916904Q868.3478743030959 388.37717425039585 866.4229230789814 388.37717425039585ZM923.4404656666735 388.5721060199264L923.4404656666735 388.5721060199264Q919.2250661505749 388.5721060199264 916.7884190314427 385.84306124649845Q914.3274054411194 383.1140164730705 913.4502124782317 378.92298342816315Q912.5730195153441 374.7075839120646 912.7435848136834 370.32161909762675L912.7435848136834 370.32161909762675Q913.2796471798923 362.7680130283171 916.0817913668944 353.11889043655384Q918.8839355538963 343.46976784479057 923.3673662530995 333.3820487715835Q927.8264304811113 323.2943296983765 933.3576194415413 314.3518347711615Q938.8888084019712 305.40933984394655 945.0291591421842 298.9034920358638Q951.1695098823972 292.42201069897226 957.1392953242708 289.9609971086488L957.1392953242708 289.9609971086488Q959.0642465483853 289.08380414576123 960.4531354062907 288.81577296265675Q961.8663907353873 288.5721082507435 963.0847142949534 288.5721082507435L963.0847142949534 288.5721082507435Q967.3001138110519 288.5721082507435 968.7133691401485 292.59257599731154L968.7133691401485 292.59257599731154Q969.4199968046969 294.00583132640816 969.4199968046969 296.1013478488618L969.4199968046969 296.1013478488618Q969.4199968046969 300.3167473649604 966.5934861465037 305.9210357389643L966.5934861465037 305.9210357389643Q964.1568390273716 311.0136282179505 959.575942443403 317.422010141268Q955.0194123306261 323.83039206458557 949.3176580718567 330.4093392862423Q943.6159038130876 336.9882865078991 937.8410501407444 343.0311713633468Q932.0418299972099 349.0984226899858 927.119802816563 353.82551810110215Q922.2221421071074 358.5526135122185 919.2250661505749 361.01362710254193L919.2250661505749 361.01362710254193Q918.1773078893481 366.81284724607644 918.1773078893481 371.9054397250626L918.1773078893481 371.9054397250626Q918.1773078893481 377.3391628007273 920.0291596998885 381.3596305472953Q921.8566450392376 385.4044647650546 926.2426098536754 385.4044647650546L926.2426098536754 385.4044647650546Q930.458009369774 385.4044647650546 934.5028435875334 382.0662582118436Q938.5233113341013 378.7280516586326 941.9589837720777 374.1715215458555Q945.3702897388627 369.6149914330784 947.6607380308469 366.10621958152814L947.6607380308469 366.10621958152814Q948.3673656953953 365.39959191697983 948.5379309937344 365.39959191697983L948.5379309937344 365.39959191697983Q949.0496268887522 365.39959191697983 949.0496268887522 366.27678487986736L949.0496268887522 366.27678487986736Q949.0496268887522 366.9834125444157 948.5379309937344 367.86060550730326L948.5379309937344 367.86060550730326Q945.3702897388627 372.7826326879502 941.520387290634 377.50972809906654Q937.6461183712138 382.23682351018283 933.0895882584367 385.4044647650546Q928.5330581456597 388.5721060199264 923.4404656666735 388.5721060199264ZM919.9316938151231 358.04091761720076L919.9316938151231 358.04091761720076Q923.8059627345433 354.53214576565045 930.0194128883302 348.02629795756764Q936.2572295133085 341.54481662067616 943.0067420333045 333.65007995468807Q949.7562545533004 325.7553432886999 955.3849093984958 318.1286378058163Q960.9891977724998 310.5019323229327 963.6207766611625 304.532146881059L963.6207766611625 304.532146881059Q964.6685349223892 302.41226388741404 965.3751625869376 299.9756167682819Q966.0817902514859 297.51460317795846 966.0817902514859 295.3947201843135L966.0817902514859 295.3947201843135Q966.0817902514859 291.5448177360847 963.2796460644839 291.5448177360847L963.2796460644839 291.5448177360847Q959.4053771450639 291.5448177360847 952.9238958081722 297.6851684762977L952.9238958081722 297.6851684762977Q945.7357868067326 304.36158158271974 939.0593737003105 314.61986595426606Q932.3829605938885 324.8781503258124 927.3878339996676 336.18419295858547Q922.3927074054467 347.5146020625499 919.9316938151231 358.04091761720076ZM987.8410490253359 436.988284277082L987.8410490253359 436.988284277082Q983.9667801059157 436.988284277082 980.9940706205745 433.38204654076645Q977.9969946640421 429.80017527564223 977.3147334706849 422.2465692063326L977.3147334706849 422.2465692063326Q977.1198017011544 420.8333138772359 977.1198017011544 419.34695913456534Q977.1198017011544 417.86060439189475 977.1198017011544 416.4473490627981L977.1198017011544 416.4473490627981Q977.1198017011544 409.9658677259066 978.1919264335726 402.85085813804073Q979.2396846947994 395.76021502136626 981.335201217253 388.7426713182657L981.335201217253 388.7426713182657Q983.7962148075766 380.48243758440776 987.5730178422313 371.63740854195805Q991.3498208768862 362.7680130283171 994.4930956605666 356.45709698976486L994.4930956605666 356.45709698976486Q991.6909514735646 356.11596639308635 988.1821796220144 357.5048552509917Q984.6734077704641 358.9181105800883 982.7484565463498 360.8430618042027L982.7484565463498 360.8430618042027Q982.2123941801407 361.3791241704118 981.8712635834621 361.3791241704118L981.8712635834621 361.3791241704118Q981.335201217253 361.3791241704118 981.335201217253 360.5019312075242L981.335201217253 360.5019312075242Q981.335201217253 358.5526135122185 982.9190218446889 357.3342899526524L982.9190218446889 357.3342899526524Q985.5506007333516 354.70271106398974 988.5233102186929 353.5574869179976Q991.5203861752253 352.41226277200553 997.1246745492293 351.3645045107787L997.1246745492293 351.3645045107787Q998.3673645799867 349.0984226899858 1000.365415217675 345.58965083843555Q1002.3878323265548 342.08087898688524 1003.6305223573121 339.79043069490103L1003.6305223573121 339.79043069490103Q1009.4053760296553 330.67737046934684 1016.9589820989648 323.2943296983765Q1024.4882216970832 315.9356553985974 1032.7484554309412 314.18126947282224L1032.7484554309412 314.18126947282224Q1033.6256483938287 314.010704174483 1034.332276058377 313.91323828971775Q1035.014537251734 313.81577240495244 1035.7211649162823 313.81577240495244L1035.7211649162823 313.81577240495244Q1038.718240872815 313.81577240495244 1040.47262679859 314.96099655094457Q1042.227012724365 316.10622069693665 1042.5681433210439 317.86060662271177L1042.5681433210439 317.86060662271177Q1042.738708619383 318.2017372193903 1042.738708619383 318.73779958559936L1042.738708619383 318.73779958559936Q1042.738708619383 319.61499254848695 1042.227012724365 319.61499254848695L1042.227012724365 319.61499254848695Q1041.5203850598168 319.61499254848695 1041.3498197614776 318.39666898892085L1041.3498197614776 318.39666898892085Q1041.154887991947 317.5194760260333 1039.7659991340417 317.0808795445895Q1038.352743804945 316.6422830631457 1036.5983578791697 316.6422830631457L1036.5983578791697 316.6422830631457Q1032.2123930647322 316.6422830631457 1027.3878317688504 319.8830237315915Q1022.5632704729688 323.1237644000372 1018.0067403601917 328.48438806212795Q1013.4502102474147 333.8206452530273 1009.4053760296553 340.13156129157954L1009.4053760296553 340.13156129157954Q1007.8215554022194 342.42200958356375 1006.2621012459748 345.1510543569917Q1004.6782806185389 347.8557326592284 1003.2650252894423 350.1461809512126L1003.2650252894423 350.1461809512126Q1007.8215554022194 349.61011858500353 1012.4024519861878 349.2689879883251Q1016.9589820989648 348.9034909204552 1020.8088845471938 348.9034909204552L1020.8088845471938 348.9034909204552Q1022.2221398762903 348.9034909204552 1023.4404634358564 348.9034909204552Q1024.683153466614 348.9034909204552 1025.7309117278405 349.0984226899858L1025.7309117278405 349.0984226899858Q1027.655862951955 349.4395532866643 1027.655862951955 350.3167462495519L1027.655862951955 350.3167462495519Q1027.655862951955 351.3645045107787 1026.0720423245193 351.3645045107787L1026.0720423245193 351.3645045107787Q1019.0544986214185 351.3645045107787 1013.2796449490754 351.9005668769878Q1007.4804248055409 352.41226277200553 1001.3400740653279 353.82551810110215L1001.3400740653279 353.82551810110215Q1001.1695087669887 354.53214576565045 1000.8040116991189 355.1413075454335Q1000.4628811024403 355.75046932521656 1000.1217505057618 356.2865316914256L1000.1217505057618 356.2865316914256Q1004.8488459168782 357.3342899526524 1007.9190212869847 361.7202547670903Q1010.9891966570912 366.10621958152814 1012.4755513997618 372.5877009184196Q1013.9619061424324 379.09354872650243 1013.9619061424324 386.2816577279422L1013.9619061424324 386.2816577279422Q1013.9619061424324 390.49705724404083 1013.4502102474147 395.05358735681796L1013.4502102474147 395.05358735681796Q1012.2075202166573 405.40933761312954 1009.1373448465507 414.01070194366594Q1006.0671694764443 422.5876998030111 1002.2172670282155 427.68029228199725L1002.2172670282155 427.68029228199725Q995.0291580267757 436.988284277082 987.8410490253359 436.988284277082ZM988.5233102186929 432.7728847609834L988.5233102186929 432.7728847609834Q991.5203861752253 432.7728847609834 995.1022574403496 429.7027093908769Q998.7084951766652 426.63253402077044 1002.0467017298762 420.49218328055747L1002.0467017298762 420.49218328055747Q1004.1422182523298 416.4473490627981 1006.7737971409925 409.86840184114135Q1009.4053760296553 403.28945461948456 1010.6480660604127 394.8830220584787L1010.6480660604127 394.8830220584787Q1010.9891966570912 392.25144316981596 1011.2572278401957 389.61986428115324Q1011.5252590233002 386.9882853924905 1011.5252590233002 384.5272718021671L1011.5252590233002 384.5272718021671Q1011.5252590233002 374.8781492104038 1008.4550836531937 367.4220090258595Q1005.3849082830872 359.9658688413151 999.2445575428742 358.21148291554L999.2445575428742 358.21148291554Q994.6636609589058 366.27678487986736 990.8137585106771 376.2914045395005Q986.9638560624484 386.2816577279422 984.4053765873596 396.6374079842538Q981.8712635834621 406.9931582405654 981.1646359189139 415.93565316778034L981.1646359189139 415.93565316778034Q980.6285735527048 424.34208572878623 982.8215559599238 428.5574852448848Q985.0145383671426 432.7728847609834 988.5233102186929 432.7728847609834ZM1035.7211649162823 387.8654783553781L1035.7211649162823 387.8654783553781Q1030.994069505166 387.8654783553781 1027.4852976536158 385.50193064981994Q1023.9765258020653 383.1140164730705 1023.9765258020653 376.97366573285746L1023.9765258020653 376.97366573285746Q1023.9765258020653 373.1237632846287 1025.9014770261797 368.4697672870863Q1027.8264282502942 363.81577128954393 1030.8966036204006 359.3567070615321Q1033.966778990507 354.87327636232897 1037.6461161403968 351.9005668769878L1037.6461161403968 351.9005668769878Q1038.5233091032842 351.19393921243943 1039.9365644323811 351.19393921243943L1039.9365644323811 351.19393921243943Q1042.0320809548348 349.0984226899858 1044.7611257282624 348.02629795756764Q1047.4901705016905 346.9785396963409 1049.9268176208227 346.9785396963409L1049.9268176208227 346.9785396963409Q1054.3127824352605 346.9785396963409 1058.0895854699154 349.7806838833428Q1061.8663885045703 352.6071945415361 1061.8663885045703 358.74754528174907L1061.8663885045703 358.74754528174907Q1061.8663885045703 362.2563171332994 1059.9414372804558 367.15397784275495L1059.9414372804558 367.15397784275495Q1058.1870513546805 371.710507955532 1054.5077142047912 376.5350692514137Q1050.8040105837104 381.3596305472953 1045.9794492878286 384.62473768693235Q1041.154887991947 387.8654783553781 1035.7211649162823 387.8654783553781ZM1035.5505996179431 385.74559536173314L1035.5505996179431 385.74559536173314Q1039.400502066172 385.74559536173314 1043.5428021686967 382.77288587639197Q1047.6607358000297 379.80017639105074 1051.1695076515803 375.14618039350836Q1054.6782795031304 370.492184395966 1056.2621001305663 365.7650889848496L1056.2621001305663 365.7650889848496Q1058.0164860563414 361.01362710254193 1058.0164860563414 357.3342899526524L1058.0164860563414 357.3342899526524Q1058.0164860563414 352.77775983987533 1055.5554724660178 350.75534273099566Q1053.0944588756945 348.732925622116 1050.1217493903532 348.732925622116L1050.1217493903532 348.732925622116Q1045.3702875080457 348.732925622116 1041.8615156564952 351.9005668769878L1041.8615156564952 351.9005668769878Q1043.6159015822705 352.9483251382146 1042.227012724365 353.99608339944143L1042.227012724365 353.99608339944143Q1039.7659991340417 356.11596639308635 1036.695823763935 359.7953035429759Q1033.6256483938287 363.4746406928654 1031.8712624680536 366.6422819477372L1031.8712624680536 366.6422819477372Q1030.628572437296 368.73779847019085 1029.6782800608348 372.0760050234019Q1028.7036212131818 375.4142115766129 1028.7036212131818 378.3869210619541L1028.7036212131818 378.3869210619541Q1028.7036212131818 381.3596305472953 1030.1899759558523 383.55261295451425Q1031.7006971697142 385.74559536173314 1035.5505996179431 385.74559536173314ZM1076.9492341719981 387.8654783553781L1076.9492341719981 387.8654783553781Q1072.222138760882 387.8654783553781 1068.7133669093314 385.50193064981994Q1065.2045950577813 383.1140164730705 1065.2045950577813 376.97366573285746L1065.2045950577813 376.97366573285746Q1065.2045950577813 373.1237632846287 1067.1295462818957 368.4697672870863Q1069.05449750601 363.81577128954393 1072.1246728761166 359.3567070615321Q1075.194848246223 354.87327636232897 1078.8741853961124 351.9005668769878L1078.8741853961124 351.9005668769878Q1079.7513783590002 351.19393921243943 1081.1646336880967 351.19393921243943L1081.1646336880967 351.19393921243943Q1083.2601502105504 349.0984226899858 1085.9891949839785 348.02629795756764Q1088.7182397574063 346.9785396963409 1091.1548868765385 346.9785396963409L1091.1548868765385 346.9785396963409Q1095.5408516909763 346.9785396963409 1099.3176547256312 349.7806838833428Q1103.0944577602859 352.6071945415361 1103.0944577602859 358.74754528174907L1103.0944577602859 358.74754528174907Q1103.0944577602859 362.2563171332994 1101.1695065361716 367.15397784275495L1101.1695065361716 367.15397784275495Q1099.4151206103966 371.710507955532 1095.7357834605068 376.5350692514137Q1092.032079839426 381.3596305472953 1087.2075185435444 384.62473768693235Q1082.382957247663 387.8654783553781 1076.9492341719981 387.8654783553781ZM1076.7786688736587 385.74559536173314L1076.7786688736587 385.74559536173314Q1080.6285713218876 385.74559536173314 1084.7708714244122 382.77288587639197Q1088.8888050557457 379.80017639105074 1092.3975769072958 375.14618039350836Q1095.9063487588462 370.492184395966 1097.490169386282 365.7650889848496L1097.490169386282 365.7650889848496Q1099.2445553120574 361.01362710254193 1099.2445553120574 357.3342899526524L1099.2445553120574 357.3342899526524Q1099.2445553120574 352.77775983987533 1096.7835417217339 350.75534273099566Q1094.3225281314103 348.732925622116 1091.3498186460693 348.732925622116L1091.3498186460693 348.732925622116Q1086.5983567637613 348.732925622116 1083.0895849122112 351.9005668769878L1083.0895849122112 351.9005668769878Q1084.8439708379865 352.9483251382146 1083.4550819800809 353.99608339944143L1083.4550819800809 353.99608339944143Q1080.9940683897576 356.11596639308635 1077.9238930196511 359.7953035429759Q1074.8537176495445 363.4746406928654 1073.0993317237694 366.6422819477372L1073.0993317237694 366.6422819477372Q1071.856641693012 368.73779847019085 1070.9063493165504 372.0760050234019Q1069.9316904688976 375.4142115766129 1069.9316904688976 378.3869210619541L1069.9316904688976 378.3869210619541Q1069.9316904688976 381.3596305472953 1071.4180452115684 383.55261295451425Q1072.9287664254302 385.74559536173314 1076.7786688736587 385.74559536173314ZM1112.5730150537102 389.08380191494416L1112.5730150537102 389.08380191494416Q1109.0642432021596 389.08380191494416 1107.0418260932802 386.2816577279422Q1105.0194089844003 383.4795135409403 1105.0194089844003 379.26411402484166L1105.0194089844003 379.26411402484166Q1105.0194089844003 375.5847768749521 1106.7737949101754 371.27191147408826Q1108.5281808359507 366.9834125444157 1111.3303250229524 362.59744772997783L1111.3303250229524 362.59744772997783Q1114.1568356811458 358.5526135122185 1119.4199934584713 354.70271106398974Q1124.6831512357967 350.8528086157609 1129.5808119452522 350.65787684623035L1129.5808119452522 350.65787684623035Q1131.5057631693667 350.65787684623035 1133.1870496815677 351.29140509720474Q1134.8439697225776 351.9005668769878 1135.7211626854653 353.28945573489307L1135.7211626854653 353.28945573489307Q1136.598355648353 344.5175261060174 1138.888803940337 334.79530410068014Q1141.15488576113 325.0487156241516 1144.6636576126803 316.2767859952759L1144.6636576126803 316.2767859952759Q1150.9989401224238 300.4873126632997 1160.8186280125262 291.71538303442395L1160.8186280125262 291.71538303442395Q1166.0817857898517 286.9882876233076 1170.9794464993074 286.9882876233076L1170.9794464993074 286.9882876233076Q1174.3176530525184 286.9882876233076 1176.3400701613982 289.522400627205Q1178.3624872702776 292.0808801022938 1178.3624872702776 297.1491061100886L1178.3624872702776 297.1491061100886Q1178.3624872702776 302.24169858907476 1175.6334424968495 310.2339011398282Q1172.928764194613 318.2017372193903 1166.5934816848694 329.09354984191094L1166.5934816848694 329.09354984191094Q1164.8390957590943 331.8956940289129 1160.721162127761 337.8654794707866Q1156.6032284964276 343.83526491266036 1151.0720395359976 351.0964733276742Q1145.5408505755677 358.3820482138792 1139.7659969032247 365.39959191697983L1139.7659969032247 365.39959191697983Q1139.5954316048853 373.1237632846287 1140.9843204627907 379.1666481400764Q1142.3975757918874 385.2338994667154 1146.783540606325 385.2338994667154L1146.783540606325 385.2338994667154Q1147.295236501343 385.2338994667154 1147.831298867552 385.13643358195014Q1148.3673612337611 385.0633341683762 1148.8790571287789 384.8684023988456L1148.8790571287789 384.8684023988456Q1152.5583942786684 383.6500788392795 1156.0671661302185 380.3118722860685Q1159.575937981769 376.97366573285746 1162.5730139383013 372.9531979862894Q1165.5457234236428 368.9083637685301 1167.470674647757 365.9356542831889L1167.470674647757 365.9356542831889Q1168.1773023123055 365.22902661864055 1168.3478676106447 365.22902661864055L1168.3478676106447 365.22902661864055Q1168.8839299768538 365.22902661864055 1168.8839299768538 366.10621958152814L1168.8839299768538 366.10621958152814Q1168.8839299768538 366.9834125444157 1168.3478676106447 367.86060550730326L1168.3478676106447 367.86060550730326Q1164.8390957590943 373.830390949177 1159.4053726834297 379.60524462152017Q1153.971649607765 385.4044647650546 1149.0496224271183 387.32941598916904L1149.0496224271183 387.32941598916904Q1147.1246712030038 388.03604365371734 1145.3702852772285 388.03604365371734L1145.3702852772285 388.03604365371734Q1140.472624567773 388.03604365371734 1137.9141450926843 382.9434511747312Q1135.3800320887867 377.85085869574505 1135.0145350209168 371.02824676217506L1135.0145350209168 371.02824676217506Q1129.7513772435914 376.97366573285746 1125.024281832475 381.62766173039984Q1120.297186421359 386.2816577279422 1117.129545166487 387.8654783553781L1117.129545166487 387.8654783553781Q1114.6685315761638 389.08380191494416 1112.5730150537102 389.08380191494416ZM1139.936562201564 361.1841924008812L1139.936562201564 361.1841924008812Q1145.3702852772285 354.53214576565045 1150.2923124578756 347.8557326592284Q1155.1899731673311 341.20368602399765 1158.9667762019858 335.84306236190696Q1162.7435792366407 330.48243869981627 1164.3273998640766 327.85085981115355L1164.3273998640766 327.85085981115355Q1170.4677506042894 317.3245442565027 1173.0993294929522 309.79530465838445Q1175.7309083816149 302.24169858907476 1175.7309083816149 297.6851684762977L1175.7309083816149 297.6851684762977Q1175.7309083816149 290.4970594748579 1170.9794464993074 290.4970594748579L1170.9794464993074 290.4970594748579Q1167.3001093494177 290.4970594748579 1162.91414453498 294.88302428929575L1162.91414453498 294.88302428929575Q1159.7708697512994 298.0262990729762 1155.9940667166447 304.4346809962937Q1152.2172636819898 310.84306291961127 1149.2445541966486 318.56723428726013L1149.2445541966486 318.56723428726013Q1145.3702852772285 328.38692217736264 1142.7387063885658 339.61986539656175L1142.7387063885658 339.61986539656175Q1142.227010493548 341.88594721735467 1141.252351645895 347.9531985439937Q1140.2776927982425 353.99608339944143 1139.936562201564 361.1841924008812ZM1111.8663873891614 386.9882853924905L1111.8663873891614 386.9882853924905Q1113.6207733149367 386.9882853924905 1115.9112216069211 385.74559536173314L1115.9112216069211 385.74559536173314Q1119.0544963906013 384.1861412054886 1124.1470888695876 378.9960828417371Q1129.2396813485739 373.830390949177 1134.8439697225776 367.15397784275495L1134.8439697225776 367.15397784275495Q1134.8439697225776 361.8908200654295 1135.3800320887867 355.9210346235558L1135.3800320887867 355.9210346235558Q1134.6734044242385 355.23877343019876 1133.6987455765857 354.70271106398974Q1132.748453200124 354.16664869778066 1132.0418255355758 353.99608339944143L1132.0418255355758 353.99608339944143Q1131.5057631693667 353.82551810110215 1130.2874396098005 353.82551810110215L1130.2874396098005 353.82551810110215Q1127.3147301244594 353.99608339944143 1123.9765235712484 356.7251281728694Q1120.6383170180375 359.42980647510603 1117.5681416479308 363.3040753945262Q1114.4979662778242 367.15397784275495 1112.2075179858402 371.1988120605143L1112.2075179858402 371.1988120605143Q1108.3576155376113 378.21635576361484 1108.3576155376113 382.43175527971346L1108.3576155376113 382.43175527971346Q1108.3576155376113 386.9882853924905 1111.8663873891614 386.9882853924905ZM1179.069114934826 389.96099487783175L1179.069114934826 389.96099487783175Q1175.3654113137452 389.96099487783175 1172.4901677131693 389.449298982814Q1169.590557641402 388.91323661660493 1168.1773023123055 388.37717425039585L1168.1773023123055 388.37717425039585Q1166.252351088191 387.6949130570389 1165.2776922405383 386.54968891104676Q1164.3273998640766 385.4044647650546 1164.3273998640766 384.5272718021671L1164.3273998640766 384.5272718021671Q1164.3273998640766 383.308948242601 1165.5457234236428 383.308948242601L1165.5457234236428 383.308948242601Q1166.4229163865302 383.308948242601 1167.6656064172876 384.3567065038278L1167.6656064172876 384.3567065038278Q1170.1022535364195 386.45222302628144 1172.392701828404 386.8177200941513L1172.392701828404 386.8177200941513Q1174.3176530525184 386.8177200941513 1177.4852943073902 386.18419184317696Q1180.6285690910704 385.5750300633939 1181.871259121828 384.3567065038278L1181.871259121828 384.3567065038278Q1183.9667756442814 382.23682351018283 1183.9667756442814 380.14130698772925L1183.9667756442814 380.14130698772925Q1183.9667756442814 378.7280516586326 1183.1870485661593 377.4122622143012Q1182.3829550168457 376.09647276996986 1180.9940661589403 374.8781492104038L1180.9940661589403 374.8781492104038Q1178.7036178669562 372.9531979862894 1176.4375360461631 370.9307808774098Q1174.147087754179 368.9083637685301 1172.563267126743 366.44735017820665L1172.563267126743 366.44735017820665Q1170.1022535364195 362.59744772997783 1170.1022535364195 358.9181105800883L1170.1022535364195 358.9181105800883Q1170.1022535364195 353.28945573489307 1173.8790565710747 348.3917950254375Q1177.6558596057293 343.46976784479057 1182.0418244201674 340.3264930611101L1182.0418244201674 340.3264930611101Q1186.7689198312837 336.9882865078991 1191.6909470119303 336.9882865078991L1191.6909470119303 336.9882865078991Q1194.322525900593 336.9882865078991 1196.6129741925774 338.13351065389116Q1198.8790560133702 339.25436832869195 1200.1217460441276 341.71538191901544L1200.1217460441276 341.71538191901544Q1200.2923113424672 342.08087898688524 1200.2923113424672 342.592574881903L1200.2923113424672 342.592574881903Q1200.2923113424672 343.6403331431298 1199.5856836779185 344.00583021099965Q1198.8790560133702 344.34696080767816 1198.537925416692 343.29920254645134L1198.537925416692 343.29920254645134Q1197.4901671554649 340.49705835944934 1192.7387052731574 340.49705835944934L1192.7387052731574 340.49705835944934Q1189.9365610861555 340.49705835944934 1186.6958204177095 341.54481662067616Q1183.4550797492639 342.592574881903 1181.5057620539583 344.00583021099965L1181.5057620539583 344.00583021099965Q1175.5603430832757 348.5623603237767 1175.5603430832757 355.75046932521656L1175.5603430832757 355.75046932521656Q1175.5603430832757 360.8430618042027 1178.8741831652956 364.8878960219621L1178.8741831652956 364.8878960219621Q1181.1646314572797 367.69004020896404 1183.698744461177 370.0535879145222Q1186.2572239362657 372.41713562008033 1188.011609862041 374.6101180272993Q1189.765995787816 376.8031004345182 1189.229933421607 378.92298342816315L1189.229933421607 378.92298342816315Q1188.3527404587194 382.77288587639197 1184.2348068273861 385.13643358195014Q1180.116873196053 387.49998128750826 1176.6081013445025 387.8654783553781L1176.6081013445025 387.8654783553781Q1177.6558596057293 388.03604365371734 1180.4580037927312 388.03604365371734L1180.4580037927312 388.03604365371734Q1190.4726234523646 388.03604365371734 1197.5632665690391 381.3596305472953Q1204.6782761569048 374.7075839120646 1210.6480615987784 365.57015721531906L1210.6480615987784 365.57015721531906Q1210.9891921954572 365.0584613203013 1211.3303227921356 365.0584613203013L1211.3303227921356 365.0584613203013Q1211.6958198600055 365.0584613203013 1211.6958198600055 365.9356542831889L1211.6958198600055 365.9356542831889Q1211.6958198600055 366.9834125444157 1210.818626897118 368.39666787351234L1210.818626897118 368.39666787351234Q1204.1422137906957 378.55748636029335 1197.0515706740211 384.25924061906255Q1189.9365610861555 389.96099487783175 1179.069114934826 389.96099487783175Z " fill="#ddc6b6" transform="matrix(0.7221285052435515,0,0,0.7221285052435517,0,38.597958235601524)"/></g></svg>